<svg xmlns="http://www.w3.org/2000/svg" width="900" height="420" viewBox="0 0 900 420">
<rect width="100%" height="100%" fill="white"/>
<line x1="70" y1="35" x2="70" y2="350" stroke="#222"/>
<line x1="70" y1="350" x2="870" y2="350" stroke="#222"/>
<text x="450.0" y="24" font-family="Arial" font-size="18" text-anchor="middle">Accuracy under label-preserving affordance flips</text>
<text x="18" y="210.0" font-family="Arial" font-size="13" transform="rotate(-90 18,210.0)" text-anchor="middle">Accuracy</text>
<line x1="66" y1="350.0" x2="70" y2="350.0" stroke="#222"/>
<text x="62" y="354.0" font-family="Arial" font-size="11" text-anchor="end">0.00</text>
<line x1="70" y1="350.0" x2="870" y2="350.0" stroke="#e8e8e8"/>
<line x1="66" y1="271.2" x2="70" y2="271.2" stroke="#222"/>
<text x="62" y="275.2" font-family="Arial" font-size="11" text-anchor="end">0.25</text>
<line x1="70" y1="271.2" x2="870" y2="271.2" stroke="#e8e8e8"/>
<line x1="66" y1="192.5" x2="70" y2="192.5" stroke="#222"/>
<text x="62" y="196.5" font-family="Arial" font-size="11" text-anchor="end">0.50</text>
<line x1="70" y1="192.5" x2="870" y2="192.5" stroke="#e8e8e8"/>
<line x1="66" y1="113.8" x2="70" y2="113.8" stroke="#222"/>
<text x="62" y="117.8" font-family="Arial" font-size="11" text-anchor="end">0.75</text>
<line x1="70" y1="113.8" x2="870" y2="113.8" stroke="#e8e8e8"/>
<line x1="66" y1="35.0" x2="70" y2="35.0" stroke="#222"/>
<text x="62" y="39.0" font-family="Arial" font-size="11" text-anchor="end">1.00</text>
<line x1="70" y1="35.0" x2="870" y2="35.0" stroke="#e8e8e8"/>
<rect x="105.0" y="61.1" width="40.0" height="288.9" fill="#9C4D2F"/>
<rect x="150.0" y="82.2" width="40.0" height="267.8" fill="#447C69"/>
<rect x="195.0" y="41.2" width="40.0" height="308.8" fill="#355C9A"/>
<text x="165.0" y="375" font-family="Arial" font-size="12" text-anchor="middle">typical</text>
<rect x="305.0" y="87.4" width="40.0" height="262.6" fill="#9C4D2F"/>
<rect x="350.0" y="102.2" width="40.0" height="247.8" fill="#447C69"/>
<rect x="395.0" y="44.0" width="40.0" height="306.0" fill="#355C9A"/>
<text x="365.0" y="375" font-family="Arial" font-size="12" text-anchor="middle">label preserving flips</text>
<rect x="505.0" y="136.1" width="40.0" height="213.9" fill="#9C4D2F"/>
<rect x="550.0" y="85.4" width="40.0" height="264.6" fill="#447C69"/>
<rect x="595.0" y="44.3" width="40.0" height="305.7" fill="#355C9A"/>
<text x="565.0" y="375" font-family="Arial" font-size="12" text-anchor="middle">label swap</text>
<rect x="705.0" y="98.8" width="40.0" height="251.2" fill="#9C4D2F"/>
<rect x="750.0" y="91.9" width="40.0" height="258.1" fill="#447C69"/>
<rect x="795.0" y="48.8" width="40.0" height="301.2" fill="#355C9A"/>
<text x="765.0" y="375" font-family="Arial" font-size="12" text-anchor="middle">mixed</text>
<rect x="80" y="396" width="14" height="14" fill="#9C4D2F"/>
<text x="100" y="407" font-family="Arial" font-size="12">text_prior</text>
<rect x="260" y="396" width="14" height="14" fill="#447C69"/>
<text x="280" y="407" font-family="Arial" font-size="12">vision_proxy</text>
<rect x="440" y="396" width="14" height="14" fill="#355C9A"/>
<text x="460" y="407" font-family="Arial" font-size="12">eatl</text>
</svg>