<svg xmlns="http://www.w3.org/2000/svg" width="900" height="420" viewBox="0 0 900 420">
<rect width="100%" height="100%" fill="white"/>
<text x="450.0" y="25" font-family="Arial" font-size="18" text-anchor="middle">Probe-noise stress</text>
<line x1="80" y1="45" x2="80" y2="355" stroke="#222"/>
<line x1="80" y1="355" x2="860" y2="355" stroke="#222"/>
<polyline fill="none" stroke="#275DAD" stroke-width="3" points="80.0,355.0 111.2,343.5 173.6,322.9 236.0,300.2 329.6,263.4 454.4,221.3 641.6,159.0 860.0,73.2"/>
<circle cx="80.0" cy="355.0" r="3" fill="#275DAD"/>
<circle cx="111.2" cy="343.5" r="3" fill="#275DAD"/>
<circle cx="173.6" cy="322.9" r="3" fill="#275DAD"/>
<circle cx="236.0" cy="300.2" r="3" fill="#275DAD"/>
<circle cx="329.6" cy="263.4" r="3" fill="#275DAD"/>
<circle cx="454.4" cy="221.3" r="3" fill="#275DAD"/>
<circle cx="641.6" cy="159.0" r="3" fill="#275DAD"/>
<circle cx="860.0" cy="73.2" r="3" fill="#275DAD"/>
<rect x="80" y="396" width="12" height="12" fill="#275DAD"/>
<text x="98" y="406" font-family="Arial" font-size="12">crisp_guard</text>
<polyline fill="none" stroke="#C4493D" stroke-width="3" points="80.0,355.0 111.2,350.6 173.6,342.5 236.0,332.5 329.6,318.1 454.4,310.4 641.6,289.3 860.0,276.4"/>
<circle cx="80.0" cy="355.0" r="3" fill="#C4493D"/>
<circle cx="111.2" cy="350.6" r="3" fill="#C4493D"/>
<circle cx="173.6" cy="342.5" r="3" fill="#C4493D"/>
<circle cx="236.0" cy="332.5" r="3" fill="#C4493D"/>
<circle cx="329.6" cy="318.1" r="3" fill="#C4493D"/>
<circle cx="454.4" cy="310.4" r="3" fill="#C4493D"/>
<circle cx="641.6" cy="289.3" r="3" fill="#C4493D"/>
<circle cx="860.0" cy="276.4" r="3" fill="#C4493D"/>
<rect x="240" y="396" width="12" height="12" fill="#C4493D"/>
<text x="258" y="406" font-family="Arial" font-size="12">margin_abstain_guard</text>
<polyline fill="none" stroke="#27866E" stroke-width="3" points="80.0,355.0 111.2,354.5 173.6,351.7 236.0,347.8 329.6,335.4 454.4,308.0 641.6,258.8 860.0,183.4"/>
<circle cx="80.0" cy="355.0" r="3" fill="#27866E"/>
<circle cx="111.2" cy="354.5" r="3" fill="#27866E"/>
<circle cx="173.6" cy="351.7" r="3" fill="#27866E"/>
<circle cx="236.0" cy="347.8" r="3" fill="#27866E"/>
<circle cx="329.6" cy="335.4" r="3" fill="#27866E"/>
<circle cx="454.4" cy="308.0" r="3" fill="#27866E"/>
<circle cx="641.6" cy="258.8" r="3" fill="#27866E"/>
<circle cx="860.0" cy="183.4" r="3" fill="#27866E"/>
<rect x="400" y="396" width="12" height="12" fill="#27866E"/>
<text x="418" y="406" font-family="Arial" font-size="12">repeat3_guard</text>
<polyline fill="none" stroke="#7B4FA1" stroke-width="3" points="80.0,355.0 111.2,355.0 173.6,355.0 236.0,354.9 329.6,354.8 454.4,354.1 641.6,349.8 860.0,337.7"/>
<circle cx="80.0" cy="355.0" r="3" fill="#7B4FA1"/>
<circle cx="111.2" cy="355.0" r="3" fill="#7B4FA1"/>
<circle cx="173.6" cy="355.0" r="3" fill="#7B4FA1"/>
<circle cx="236.0" cy="354.9" r="3" fill="#7B4FA1"/>
<circle cx="329.6" cy="354.8" r="3" fill="#7B4FA1"/>
<circle cx="454.4" cy="354.1" r="3" fill="#7B4FA1"/>
<circle cx="641.6" cy="349.8" r="3" fill="#7B4FA1"/>
<circle cx="860.0" cy="337.7" r="3" fill="#7B4FA1"/>
<rect x="560" y="396" width="12" height="12" fill="#7B4FA1"/>
<text x="578" y="406" font-family="Arial" font-size="12">bayes_guard</text>
</svg>