<svg xmlns="http://www.w3.org/2000/svg" width="900" height="420" viewBox="0 0 900 420">
<rect width="100%" height="100%" fill="white"/>
<text x="450.0" y="25" font-family="Arial" font-size="18" text-anchor="middle">Cost as hidden-flip rate increases</text>
<line x1="80" y1="45" x2="80" y2="355" stroke="#222"/>
<line x1="80" y1="355" x2="860" y2="355" stroke="#222"/>
<polyline fill="none" stroke="#275DAD" stroke-width="3" points="80.0,348.5 123.3,333.5 166.7,326.7 253.3,278.0 383.3,242.2 513.3,184.3 686.7,139.2 860.0,73.2"/>
<circle cx="80.0" cy="348.5" r="3" fill="#275DAD"/>
<circle cx="123.3" cy="333.5" r="3" fill="#275DAD"/>
<circle cx="166.7" cy="326.7" r="3" fill="#275DAD"/>
<circle cx="253.3" cy="278.0" r="3" fill="#275DAD"/>
<circle cx="383.3" cy="242.2" r="3" fill="#275DAD"/>
<circle cx="513.3" cy="184.3" r="3" fill="#275DAD"/>
<circle cx="686.7" cy="139.2" r="3" fill="#275DAD"/>
<circle cx="860.0" cy="73.2" r="3" fill="#275DAD"/>
<rect x="80" y="396" width="12" height="12" fill="#275DAD"/>
<text x="98" y="406" font-family="Arial" font-size="12">text_prior</text>
<polyline fill="none" stroke="#C4493D" stroke-width="3" points="80.0,281.2 123.3,287.9 166.7,284.9 253.3,288.0 383.3,285.9 513.3,280.9 686.7,277.3 860.0,276.9"/>
<circle cx="80.0" cy="281.2" r="3" fill="#C4493D"/>
<circle cx="123.3" cy="287.9" r="3" fill="#C4493D"/>
<circle cx="166.7" cy="284.9" r="3" fill="#C4493D"/>
<circle cx="253.3" cy="288.0" r="3" fill="#C4493D"/>
<circle cx="383.3" cy="285.9" r="3" fill="#C4493D"/>
<circle cx="513.3" cy="280.9" r="3" fill="#C4493D"/>
<circle cx="686.7" cy="277.3" r="3" fill="#C4493D"/>
<circle cx="860.0" cy="276.9" r="3" fill="#C4493D"/>
<rect x="240" y="396" width="12" height="12" fill="#C4493D"/>
<text x="258" y="406" font-family="Arial" font-size="12">eager_eatl</text>
<polyline fill="none" stroke="#27866E" stroke-width="3" points="80.0,322.2 123.3,321.6 166.7,322.0 253.3,322.2 383.3,321.4 513.3,317.4 686.7,318.1 860.0,315.3"/>
<circle cx="80.0" cy="322.2" r="3" fill="#27866E"/>
<circle cx="123.3" cy="321.6" r="3" fill="#27866E"/>
<circle cx="166.7" cy="322.0" r="3" fill="#27866E"/>
<circle cx="253.3" cy="322.2" r="3" fill="#27866E"/>
<circle cx="383.3" cy="321.4" r="3" fill="#27866E"/>
<circle cx="513.3" cy="317.4" r="3" fill="#27866E"/>
<circle cx="686.7" cy="318.1" r="3" fill="#27866E"/>
<circle cx="860.0" cy="315.3" r="3" fill="#27866E"/>
<rect x="400" y="396" width="12" height="12" fill="#27866E"/>
<text x="418" y="406" font-family="Arial" font-size="12">risk_aware_eatl</text>
</svg>