<svg xmlns="http://www.w3.org/2000/svg" width="980" height="460" viewBox="0 0 980 460">
<rect width="100%" height="100%" fill="white"/>
<text x="490.0" y="25" font-family="Arial" font-size="18" text-anchor="middle">Passive visibility ladder on counterfeits</text>
<line x1="85" y1="45" x2="85" y2="370" stroke="#222"/>
<line x1="85" y1="370" x2="950" y2="370" stroke="#222"/>
<rect x="100.0" y="370.0" width="72.1" height="0.0" fill="#275DAD"/>
<text x="136.0" y="405" font-family="Arial" font-size="11" text-anchor="middle" transform="rotate(20 136.0,405)">full noisy</text>
<rect x="244.2" y="197.2" width="72.1" height="172.8" fill="#275DAD"/>
<text x="280.2" y="405" font-family="Arial" font-size="11" text-anchor="middle" transform="rotate(20 280.2,405)">geometry damage</text>
<rect x="388.3" y="193.0" width="72.1" height="177.0" fill="#275DAD"/>
<text x="424.4" y="405" font-family="Arial" font-size="11" text-anchor="middle" transform="rotate(20 424.4,405)">geometry material</text>
<rect x="532.5" y="74.5" width="72.1" height="295.5" fill="#275DAD"/>
<text x="568.5" y="405" font-family="Arial" font-size="11" text-anchor="middle" transform="rotate(20 568.5,405)">geometry only</text>
<rect x="676.7" y="130.2" width="72.1" height="239.8" fill="#275DAD"/>
<text x="712.7" y="405" font-family="Arial" font-size="11" text-anchor="middle" transform="rotate(20 712.7,405)">label only</text>
<rect x="820.8" y="210.5" width="72.1" height="159.5" fill="#275DAD"/>
<text x="856.9" y="405" font-family="Arial" font-size="11" text-anchor="middle" transform="rotate(20 856.9,405)">vlm blend</text>
<rect x="85" y="425" width="12" height="12" fill="#275DAD"/>
<text x="102" y="435" font-family="Arial" font-size="11">adversarial_counterfeit</text>
</svg>